<?xml version="1.0" encoding="utf-8"?>
<!-- Generator: Adobe Illustrator 23.0.3, SVG Export Plug-In . SVG Version: 6.00 Build 0)  -->
<svg version="1.1" id="Layer_1" xmlns="http://www.w3.org/2000/svg" xmlns:xlink="http://www.w3.org/1999/xlink" x="0px" y="0px"
	 viewBox="0 0 1327.4 198.8" style="enable-background:new 0 0 1327.4 198.8;" xml:space="preserve">
  <style type="text/css">
	  .st0{fill:#470054;}
  </style>
	<path class="st0" d="M709.8,75.8c-5.2,1.9-8.7,7.5-8.7,15v80.9c0,12,2.3,17.4,13.9,17.4c17.1,0,38.4-8.3,47.3-25.9
		c-3.1,13.6-7.4,31.1-7.4,31.1h-78.8c5-2.6,8.5-6.8,8.5-15V91c0-9.8-5.5-13.6-8.6-15.1L709.8,75.8z"/>
	<path class="st0" d="M986.2,75.8h-26.9c6.2,2.4,10.3,8.3,10.4,15v72.5l-63.5-87.5h-24.5c4.1,1.9,7.7,4.8,10.5,8.3v95.3
		c0,6.7-4.2,12.6-10.4,15h26.9c-6.2-2.4-10.3-8.3-10.4-15v-87l77.5,106.4v-108C975.9,84.2,980,78.2,986.2,75.8z"/>
	<path class="st0" d="M574.8,75.8c-5.2,1.9-8.7,7.4-8.7,15v80.9c0,12,2.3,17.4,13.9,17.4c17.1,0,38.4-8.3,47.3-25.9
		c-3.1,13.6-7.4,31.1-7.4,31.1h-78.8c5-2.6,8.5-6.8,8.5-15V90.9c0-9.8-5.5-13.6-8.6-15.1H574.8z"/>
	<path class="st0" d="M526.2,178.4c-5.6-14.2-17-45.2-40.1-106.4c-14.2,37.6-35.9,95-40.3,106.4c-4.3,11-9.3,13.4-14.2,16h24.9
		c-4.1-1.3-7.9-7.1-5.3-13.9c1.4-3.8,10.7-28.1,10.7-28.1h37.5c0,0,8.8,22.9,10.7,28.1c2.5,6.9,0.2,11.5-5.4,13.9h35.8
		C536.4,192.8,530.3,188.7,526.2,178.4 M463.9,147l16.7-44l16.6,44H463.9z"/>
	<path class="st0" d="M435,75.8c4.5,1.3,9,8,4,16.2l-25,41c0,0-20-36.6-23.2-42.6c-3.6-6.9,1.7-13.5,4.3-14.6h-37.8
		c8.8,4,14.3,12.3,17.5,18c5.1,9.3,26.4,48.5,26.4,48.5v37.2c0,7.4-3.1,12.2-8.5,15h33.3c-5.4-2.7-8.4-7.6-8.4-15.1v-41.4
		c0,0,24.6-40.6,29.3-48.2c2.3-3.7,8.1-11,14.2-14L435,75.8z"/>
	<path class="st0" d="M270.8,135.2c0,37.7,15.9,56,40.3,56s40.4-18.4,40.4-56s-16-55.9-40.5-55.9S270.8,97.6,270.8,135.2
		 M370.2,135.2c0,39.7-29,61.6-59.1,61.6s-59.1-21.9-59.1-61.6c0-40,28.9-61.6,59.1-61.6C341.1,73.6,370.2,95.4,370.2,135.2"/>
	<path class="st0" d="M780.4,135.1c0,37.6,15.9,56,40.3,56s40.4-18.4,40.4-56s-16-55.9-40.5-55.9S780.4,97.4,780.4,135.1
		 M879.8,135.1c0,39.6-29,61.6-59.1,61.6s-59.1-21.9-59.1-61.6c0-40,28.9-61.6,59.1-61.6C850.7,73.5,879.8,95.2,879.8,135.1"/>
	<path class="st0" d="M1120.3,135.1c0,37.6,15.9,56,40.3,56s40.4-18.4,40.4-56s-16-55.9-40.5-55.9S1120.3,97.4,1120.3,135.1
		 M1219.7,135.1c0,39.6-29,61.6-59.1,61.6s-59.1-21.9-59.1-61.6c0-40,28.9-61.6,59.1-61.6C1190.6,73.5,1219.7,95.2,1219.7,135.1"/>
	<path class="st0" d="M199.6,75.8c54,0,59.2,60.5-2,60.2c25.2,1.1,25.4,11.4,48.9,41.8c5.2,6.7,10.9,15,18.8,16.6h-26.8l-34.2-46.9
		c-7.5-10.3-13.8-9.9-19.8-9.9c-3.9,0-3.4,0-3.4,0v41.7c0,7.5,2.9,12.4,8.5,15h-33.3c5.6-2.8,8.5-7.8,8.5-15V90.8
		c0-7.3-3.1-12.7-8.5-15L199.6,75.8z M181.2,132.4h10.4c20.9,0,31.3-7.4,31.3-25.9c0-16.9-9-25.4-28.5-25.4
		c-4.4,0-8.8,0.2-13.2,0.6V132.4z"/>
	<path class="st0" d="M1327.4,75.8h-26.9c6.2,2.4,10.3,8.3,10.4,15v72.5l-63.5-87.6h-24.5c4.1,1.9,7.7,4.8,10.5,8.3v95.3
		c0,6.7-4.2,12.6-10.4,15h26.9c-6.2-2.4-10.3-8.3-10.4-15v-87l77.5,106.4v-108C1317.1,84.2,1321.2,78.2,1327.4,75.8z"/>
	<path class="st0" d="M1030,75.8c53.3,0,62.2,40.8,62.2,60.2c0,36.8-21.5,58.4-59.1,58.4h-43.8c5.3-2.9,8.7-7.8,8.7-15.2V90.6
		c0-7.9-4.3-13.1-8.6-14.8H1030 M1034.8,189.2c25.5,0,38.7-15.4,38.7-48.8c0-41.5-14.2-59.4-45-59.4c-3.3,0-7.9,0.2-14.3,0.5v82.1
		C1014.3,181.8,1017.3,189.2,1034.8,189.2"/>
	<path class="st0" d="M91.1,190.8c-6.1-0.2-7.9-1.7-9.6-3.5c-3.9-4.1-5.9-14.9-5.6-18.7c-4.3,0.4-4.9,5.5-4.1,8.1
		c2,6.3,5.5,11.3,3.5,14.1c-1.3,1.9-6.4,0.9-7.6,4.3c4.9-0.4,9.8-0.4,14.7,0c7.9,0.8,9.8-1.4,15-0.5
		C96.2,191.6,93.8,190.8,91.1,190.8z M130.6,95.3c-1.6-5-14.8-40.3-22.5-61.4c-1.1-6.3-1.5-11.6-2.5-14.5
		c-2.1-5.9-6.1-10.5-18.3-14.1C81.7,3.6,78,2.9,75.1,0c0.1,4.7,4.1,7.4,4.8,9c-12.7,6-9.9,20-7.7,27.2c3.4,11,14.2,24.7,16.4,35.2
		c1.8,8.3-6.1,13.5-10.8,16.1c-3.1,1.8-5.9,3.3-8.5,4.7c14.8-2.8,24.8,6.1,16.4,20.7c2-15.1-12.1-11.1-21.1-5.4
		C45,120,26.9,157.6,26.9,157.6s6-29.1,19.6-48.6c-4.6,4.9-8.7,10.3-12.2,16c-8.7,13.8-12.6,39.1-34.3,43.4
		c3.7,3.1,10.6,4.1,15.9,3.9c4.4-0.3,8.7-1.7,12.5-4c11.6-7.3,32.7-21.7,47.3-38.5c-9.3,16-34.2,33.4-45.8,40.9
		c18-3.1,36.8-9,39.1-2.2c1.9-4.1,13.9-7.9,16.4-22.1c1.7,3.9-0.7,8.6,0.7,7c10.6-12.7,36.9-51.7,22.1-76.7
		c6.9,7.5,14.8,15.8,18.3,19c2,1.9,2,4.1,2.2,5.9C130.1,100.8,131.9,99.4,130.6,95.3z M98.8,27c1-0.4,2.1,0.1,2.6,1.1
		c0.4,1.2,0.1,2.4-0.7,3.4c-1.3-0.1-2.4-0.8-3-1.9C97.3,28.5,97.8,27.4,98.8,27z M89,39.8c-3.9-1.1-11.4-4.6-7.2-16.4
		c-0.8,5.8,1.3,11.7,8,14c4.7-3.3,8.2,2,8.6,2.7c4,6,17.1,35.5,23.2,43.8c-3.2-8-18.3-42.4-19.6-45.5s2.1-3.8,2.9-2.1
		c1.7,3.6,20.5,49.4,23,57.3C122.5,88.2,88.4,52.1,89,39.8z"/>
</svg>
